<svg width="93" height="20" viewBox="0 0 93 20" fill="none" xmlns="http://www.w3.org/2000/svg">
<path d="M10 20C7.32663 20 4.82103 18.9597 2.93064 17.0693C1.04027 15.1789 0 12.6734 0 9.99998C0 7.32661 1.04027 4.82102 2.93064 2.93065C4.82103 1.04027 7.32663 0 10 0C12.6734 0 15.179 1.04027 17.0694 2.93065C18.9597 4.82102 20 7.32661 20 9.99998C20 12.6734 18.9597 15.1789 17.0694 17.0693C15.179 18.9597 12.6734 20 10 20Z" fill="black"/>
<path d="M10 20C7.32663 20 4.82103 18.9597 2.93064 17.0693C1.04027 15.1789 0 12.6734 0 9.99998C0 7.32661 1.04027 4.82102 2.93064 2.93065C4.82103 1.04027 7.32663 0 10 0C12.6734 0 15.179 1.04027 17.0694 2.93065C18.9597 4.82102 20 7.32661 20 9.99998C20 12.6734 18.9597 15.1789 17.0694 17.0693C15.179 18.9597 12.6734 20 10 20ZM10 0.246086C4.61969 0.246086 0.246084 4.61968 0.246084 9.99998C0.246084 15.3803 4.61969 19.7538 10 19.7538C15.3804 19.7538 19.7539 15.3803 19.7539 9.99998C19.7539 4.63087 15.3804 0.246086 10 0.246086Z" fill="black"/>
<mask id="mask0" mask-type="alpha" maskUnits="userSpaceOnUse" x="0" y="0" width="20" height="20">
<path d="M10 20C7.32663 20 4.82103 18.9597 2.93064 17.0693C1.04027 15.1789 0 12.6734 0 9.99998C0 7.32661 1.04027 4.82102 2.93064 2.93065C4.82103 1.04027 7.32663 0 10 0C12.6734 0 15.179 1.04027 17.0694 2.93065C18.9597 4.82102 20 7.32661 20 9.99998C20 12.6734 18.9597 15.1789 17.0694 17.0693C15.179 18.9597 12.6734 20 10 20Z" fill="#232323"/>
</mask>
<g mask="url(#mask0)">
<path d="M10.2674 20.0564H14.1599C14.1599 18.278 16.1399 15.7276 16.1399 11.891C16.1399 8.62469 15.6029 6.85736 15.2674 6.02962C14.9989 5.34729 14.6857 4.9558 14.0146 4.9558C13.3434 4.9558 12.6947 5.21306 12.5157 6.72313C11.9899 11.2086 9.98773 13.8036 10.2674 20.0564Z" fill="#FBFBFB"/>
<path d="M9.67571 20.056H5.78309C5.78309 18.2775 3.80322 15.7271 3.80322 11.8905C3.80322 8.62425 4.34014 6.85691 4.67571 6.02917C4.94417 5.34685 5.25736 4.95535 5.92851 4.95535C6.59964 4.95535 7.24842 5.21262 7.42738 6.72269C7.94192 11.2082 9.94417 13.8032 9.67571 20.056Z" fill="#FBFBFB"/>
<path d="M14.2852 20.157H10.1912V20.0563C10.0235 16.1526 10.7393 13.6693 11.4217 11.2645C11.8468 9.78792 12.2494 8.38971 12.4507 6.70068C12.5402 5.9848 12.7304 5.49262 13.0436 5.19061C13.2897 4.95571 13.614 4.84386 14.0503 4.84386C14.7886 4.84386 15.1241 5.30247 15.3926 5.9848C15.9631 7.41656 16.2651 9.46354 16.2651 11.8797C16.2651 14.1839 15.5604 16.0295 14.9899 17.5061C14.6096 18.4904 14.2852 19.3405 14.2852 20.0451V20.157ZM10.3926 19.9557H14.0838C14.1174 19.2398 14.4307 18.4008 14.7998 17.4501C15.3591 15.9848 16.0637 14.1616 16.0637 11.8909C16.0637 9.49709 15.7617 7.48367 15.2025 6.07428C14.9116 5.33602 14.5984 5.06756 14.0503 5.06756C13.4575 5.06756 12.8311 5.26891 12.6521 6.74542C12.4507 8.45682 12.0481 9.85503 11.623 11.3427C10.9519 13.6918 10.2472 16.1301 10.3926 19.9557Z" fill="black"/>
<path d="M9.80283 20.1568H5.70887V20.0561C5.70887 19.3514 5.38449 18.5013 5.00418 17.5169C4.43371 16.0405 3.729 14.1949 3.729 11.8905C3.729 9.46329 4.03102 7.4275 4.60149 5.99573C4.86995 5.31341 5.20552 4.8548 5.94378 4.8548C6.38001 4.8548 6.69321 4.96665 6.95048 5.20154C7.26369 5.50356 7.46503 5.99573 7.54332 6.71162C7.74467 8.40065 8.14735 9.79886 8.57241 11.2753C9.26592 13.6803 9.97062 16.1523 9.80283 20.0673V20.1568ZM5.9214 19.9554H9.61268C9.76928 16.1411 9.06458 13.6914 8.38226 11.3313C7.9572 9.8436 7.55451 8.44539 7.35317 6.73398C7.18539 5.25748 6.5478 5.05614 5.95495 5.05614C5.40686 5.05614 5.09367 5.3246 4.80283 6.06285C4.24355 7.47224 3.94153 9.48566 3.94153 11.8794C3.94153 14.1389 4.64623 15.9733 5.20552 17.4387C5.57464 18.4006 5.88785 19.2284 5.9214 19.9554Z" fill="black"/>
<path d="M10.0084 20.1004H9.90771C9.0576 20.1004 8.3529 19.6418 7.86073 18.7694C7.42449 18.0088 7.16722 16.9573 7.10011 15.7269C6.96588 13.3555 6.70861 8.8365 6.54082 6.8119C6.4737 5.91704 6.18288 5.83875 5.92561 5.83875C5.62359 5.83875 5.43344 6.08483 5.25447 6.72241C5.09786 7.29289 4.54977 9.96626 4.77348 12.6956C4.90771 14.3623 5.44462 15.7604 5.92561 16.9909C6.36185 18.1206 6.73098 19.0938 6.73098 20.0445H6.52964C6.52964 19.1273 6.16051 18.1766 5.73546 17.0691C5.25447 15.8163 4.70637 14.407 4.57214 12.7068C4.34843 9.95507 4.90771 7.23695 5.06431 6.66648C5.20973 6.12957 5.42225 5.62622 5.92561 5.62622C6.42896 5.62622 6.67505 5.97298 6.74216 6.77834C6.89876 8.80295 7.16722 13.3331 7.30145 15.7046C7.36856 16.9013 7.62583 17.9193 8.03971 18.6575C8.49832 19.474 9.1359 19.8879 9.90771 19.8879H10.0084C10.4111 19.8879 10.7802 19.7761 11.1046 19.5636C11.4178 19.3623 11.6862 19.0491 11.9212 18.6575C12.3573 17.9193 12.6258 16.879 12.693 15.7046C12.8272 13.3331 13.0844 8.80295 13.2522 6.77834C13.3194 5.96179 13.5654 5.62622 14.0688 5.62622C14.5721 5.62622 14.7846 6.11838 14.93 6.66648C15.0866 7.23695 15.646 9.95507 15.4223 12.7068C15.288 14.3958 14.7399 15.8275 14.2589 17.0804C13.8339 18.1989 13.4648 19.1608 13.4648 20.0781H13.2634C13.2634 19.1273 13.6437 18.143 14.0688 17.0132C14.5386 15.7716 15.0866 14.3623 15.2209 12.6956C15.4446 9.97744 14.8965 7.29289 14.7399 6.72241C14.561 6.08483 14.3708 5.83875 14.0688 5.83875C13.8115 5.83875 13.5319 5.91704 13.4536 6.8119C13.297 8.8365 13.0285 13.3555 12.8943 15.7269C12.8272 16.9461 12.5476 17.9976 12.1001 18.7694C11.5743 19.6306 10.8585 20.1004 10.0084 20.1004Z" fill="black"/>
<path d="M11.5333 4.97782V5.12323C10.6161 5.32457 10.2582 5.67132 10.0568 6.62211H9.87784C9.6765 5.66015 9.35211 5.32457 8.39014 5.12323V4.97782C9.34093 4.77648 9.66531 4.42972 9.87784 3.47894H10.0568C10.2693 4.4409 10.6273 4.77648 11.5333 4.97782Z" fill="#FBFBFB"/>
</g>
<path d="M34.318 15L34.304 8.504L31.084 13.88H30.272L27.052 8.588V15H25.316V5.2H26.814L30.706 11.696L34.528 5.2H36.026L36.04 15H34.318ZM45.5471 11.304C45.5471 11.4253 45.5378 11.598 45.5191 11.822H39.6531C39.7558 12.3727 40.0218 12.8113 40.4511 13.138C40.8898 13.4553 41.4311 13.614 42.0751 13.614C42.8964 13.614 43.5731 13.3433 44.1051 12.802L45.0431 13.88C44.7071 14.2813 44.2824 14.5847 43.7691 14.79C43.2558 14.9953 42.6771 15.098 42.0331 15.098C41.2118 15.098 40.4884 14.9347 39.8631 14.608C39.2378 14.2813 38.7524 13.8287 38.4071 13.25C38.0711 12.662 37.9031 11.9993 37.9031 11.262C37.9031 10.534 38.0664 9.88067 38.3931 9.302C38.7291 8.714 39.1911 8.25667 39.7791 7.93C40.3671 7.60333 41.0298 7.44 41.7671 7.44C42.4951 7.44 43.1438 7.60333 43.7131 7.93C44.2918 8.24733 44.7398 8.7 45.0571 9.288C45.3838 9.86667 45.5471 10.5387 45.5471 11.304ZM41.7671 8.84C41.2071 8.84 40.7311 9.008 40.3391 9.344C39.9564 9.67067 39.7231 10.1093 39.6391 10.66H43.8811C43.8064 10.1187 43.5778 9.68 43.1951 9.344C42.8124 9.008 42.3364 8.84 41.7671 8.84ZM48.8941 8.616C49.3981 7.832 50.2847 7.44 51.5541 7.44V9.106C51.4047 9.078 51.2694 9.064 51.1481 9.064C50.4667 9.064 49.9347 9.26467 49.5521 9.666C49.1694 10.058 48.9781 10.6273 48.9781 11.374V15H47.2281V7.524H48.8941V8.616ZM56.4003 15.098C55.6256 15.098 54.9303 14.9347 54.3143 14.608C53.6983 14.2813 53.2176 13.8287 52.8723 13.25C52.5269 12.662 52.3543 11.9993 52.3543 11.262C52.3543 10.5247 52.5269 9.86667 52.8723 9.288C53.2176 8.70933 53.6936 8.25667 54.3003 7.93C54.9163 7.60333 55.6163 7.44 56.4003 7.44C57.1376 7.44 57.7816 7.58933 58.3323 7.888C58.8923 8.18667 59.3123 8.616 59.5923 9.176L58.2483 9.96C58.0336 9.61467 57.7629 9.358 57.4363 9.19C57.1189 9.01267 56.7689 8.924 56.3863 8.924C55.7329 8.924 55.1916 9.13867 54.7623 9.568C54.3329 9.988 54.1183 10.5527 54.1183 11.262C54.1183 11.9713 54.3283 12.5407 54.7483 12.97C55.1776 13.39 55.7236 13.6 56.3863 13.6C56.7689 13.6 57.1189 13.516 57.4363 13.348C57.7629 13.1707 58.0336 12.9093 58.2483 12.564L59.5923 13.348C59.3029 13.908 58.8783 14.342 58.3183 14.65C57.7676 14.9487 57.1283 15.098 56.4003 15.098ZM68.343 7.524V15H66.677V14.048C66.397 14.384 66.047 14.6453 65.627 14.832C65.207 15.0093 64.7544 15.098 64.269 15.098C63.2704 15.098 62.4817 14.8227 61.903 14.272C61.3337 13.712 61.049 12.886 61.049 11.794V7.524H62.799V11.556C62.799 12.228 62.9484 12.732 63.247 13.068C63.555 13.3947 63.989 13.558 64.549 13.558C65.1744 13.558 65.669 13.3667 66.033 12.984C66.4064 12.592 66.593 12.032 66.593 11.304V7.524H68.343ZM72.3003 8.616C72.8043 7.832 73.691 7.44 74.9603 7.44V9.106C74.811 9.078 74.6757 9.064 74.5543 9.064C73.873 9.064 73.341 9.26467 72.9583 9.666C72.5757 10.058 72.3843 10.6273 72.3843 11.374V15H70.6343V7.524H72.3003V8.616ZM83.7183 7.524L80.2183 15.602C79.8916 16.414 79.495 16.9833 79.0283 17.31C78.5616 17.646 77.997 17.814 77.3343 17.814C76.961 17.814 76.5923 17.7533 76.2283 17.632C75.8643 17.5107 75.5656 17.3427 75.3323 17.128L76.0323 15.84C76.2003 15.9987 76.3963 16.1247 76.6203 16.218C76.8536 16.3113 77.087 16.358 77.3203 16.358C77.6283 16.358 77.8803 16.2787 78.0763 16.12C78.2816 15.9613 78.4683 15.6953 78.6363 15.322L78.7623 15.028L75.5003 7.524H77.3203L79.6723 13.054L82.0383 7.524H83.7183ZM87.967 15.098C87.211 15.098 86.5297 14.9347 85.923 14.608C85.3163 14.2813 84.8403 13.8287 84.495 13.25C84.159 12.662 83.991 11.9993 83.991 11.262C83.991 10.5247 84.159 9.86667 84.495 9.288C84.8403 8.70933 85.3163 8.25667 85.923 7.93C86.5297 7.60333 87.211 7.44 87.967 7.44C88.7323 7.44 89.4183 7.60333 90.025 7.93C90.6317 8.25667 91.103 8.70933 91.439 9.288C91.7843 9.86667 91.957 10.5247 91.957 11.262C91.957 11.9993 91.7843 12.662 91.439 13.25C91.103 13.8287 90.6317 14.2813 90.025 14.608C89.4183 14.9347 88.7323 15.098 87.967 15.098ZM87.967 13.6C88.611 13.6 89.143 13.3853 89.563 12.956C89.983 12.5267 90.193 11.962 90.193 11.262C90.193 10.562 89.983 9.99733 89.563 9.568C89.143 9.13867 88.611 8.924 87.967 8.924C87.323 8.924 86.791 9.13867 86.371 9.568C85.9603 9.99733 85.755 10.562 85.755 11.262C85.755 11.962 85.9603 12.5267 86.371 12.956C86.791 13.3853 87.323 13.6 87.967 13.6Z" fill="#394247"/>
</svg>
